<?xml version="1.0" standalone="no"?>
<svg viewBox="0 0 200 200" xmlns="http://www.w3.org/2000/svg">
  <path fill="#FFE300" d="M21.5,-37.7C33.8,-30.1,54,-36.4,59.1,-32.5C64.2,-28.5,54.2,-14.3,55.3,0.6C56.3,15.5,68.4,31,62.2,32.9C55.9,34.9,31.4,23.4,18,26.1C4.5,28.8,2.3,45.7,-2,49.2C-6.3,52.6,-12.5,42.6,-18.6,35.6C-24.7,28.7,-30.6,24.9,-39.6,19.5C-48.5,14.1,-60.4,7,-58.6,1C-56.8,-5,-41.3,-9.9,-35.7,-21C-30,-32.1,-34.2,-49.4,-29.9,-61.6C-25.6,-73.9,-12.8,-81.1,-4.1,-73.9C4.6,-66.8,9.1,-45.2,21.5,-37.7Z" transform="translate(100 100)" />
</svg>
